<svg width="90" height="90" viewBox="0 0 90 90" fill="none" xmlns="http://www.w3.org/2000/svg">
<path d="M38.4205 9C33.3201 8.99959 28.3082 10.3329 23.8822 12.8676C19.4562 15.4023 15.7699 19.0502 13.1891 23.4495C10.6083 27.8488 9.22268 32.8465 9.16978 37.9466C9.11689 43.0468 10.3985 48.0721 12.8875 52.524L9.30553 61.893C9.00776 62.6718 8.93223 63.518 9.08736 64.3373C9.24249 65.1565 9.62218 65.9166 10.1841 66.5326C10.746 67.1486 11.468 67.5964 12.2695 67.826C13.0711 68.0557 13.9207 68.0581 14.7235 67.833L25.915 64.6965C29.8793 66.5696 34.214 67.5275 38.5984 67.4994C42.9828 67.4713 47.3048 66.4578 51.2448 64.5341C55.1847 62.6103 58.6417 59.8254 61.3602 56.3853C64.0786 52.9453 65.9889 48.9381 66.9498 44.6601C67.9107 40.3822 67.8975 35.943 66.9113 31.6708C65.9251 27.3987 63.9911 23.4029 61.2523 19.979C58.5135 16.5551 55.04 13.7907 51.0888 11.8903C47.1375 9.98992 42.8095 9.00213 38.425 9H38.4205ZM13.6705 38.25C13.6725 32.8564 15.4364 27.6112 18.6936 23.3122C21.9509 19.0133 26.5233 15.8961 31.7152 14.4348C36.907 12.9736 42.4341 13.2483 47.4554 15.2172C52.4768 17.1861 56.7175 20.7414 59.5324 25.3421C62.3473 29.9429 63.5823 35.3372 63.0494 40.7044C62.5166 46.0716 60.245 51.1178 56.5804 55.0752C52.9159 59.0327 48.0588 61.6847 42.7484 62.6279C37.4379 63.571 31.9647 62.7536 27.1615 60.3L26.3785 59.895L13.5085 63.4995L17.869 52.0875L17.293 51.1425C14.9177 47.2622 13.6638 42.7996 13.6705 38.25ZM51.754 81C47.5435 81.0047 43.3818 80.0981 39.5547 78.3426C35.7276 76.5872 32.3257 74.0243 29.5825 70.83C32.1669 71.5301 34.8258 71.9184 37.5025 71.9865C41.6697 74.9298 46.6478 76.5069 51.7495 76.5C55.8085 76.5 59.6335 75.5235 63.0085 73.8L63.7915 73.395L76.6615 76.9995L72.301 65.5875L72.877 64.6425C75.172 60.8895 76.4995 56.4795 76.4995 51.75C76.5065 46.753 74.9936 41.872 72.1615 37.755C72.1245 35.0779 71.7695 32.4148 71.104 29.8215C74.2175 32.5631 76.7106 35.9371 78.417 39.7184C80.1234 43.4997 81.0038 47.6015 80.9995 51.75C80.9995 56.9295 79.6495 61.7985 77.287 66.024L80.8645 75.393C81.1623 76.1718 81.2378 77.018 81.0827 77.8373C80.9276 78.6565 80.5479 79.4166 79.986 80.0326C79.4241 80.6486 78.7021 81.0964 77.9005 81.326C77.099 81.5557 76.2494 81.5581 75.4465 81.333L64.255 78.1965C60.4615 79.9965 56.218 81 51.745 81H51.754Z" fill="#FFA945"/>
</svg>
