<svg width="64" height="64" viewBox="0 0 64 64" fill="none" xmlns="http://www.w3.org/2000/svg">
<path d="M32 62C48.5685 62 62 48.5685 62 32C62 15.4315 48.5685 2 32 2C15.4315 2 2 15.4315 2 32C2 48.5685 15.4315 62 32 62Z" fill="#FFDD67"/>
<path d="M28.5 27.9002C26.6 22.8002 23.8 20.2002 21 20.2002C18.2 20.2002 15.4 22.8002 13.5 27.9002C13.3 28.4002 14.3 29.3002 14.8 28.8002C16.6 26.9002 18.8 26.1002 21 26.1002C23.2 26.1002 25.4 26.9002 27.2 28.8002C27.8 29.4002 28.7 28.4002 28.5 27.9002ZM50.4 27.9002C48.5 22.8002 45.7 20.2002 42.9 20.2002C40.1 20.2002 37.3 22.8002 35.4 27.9002C35.2 28.4002 36.2 29.3002 36.7 28.8002C38.5 26.9002 40.7 26.1002 42.9 26.1002C45.1 26.1002 47.3 26.9002 49.1 28.8002C49.6 29.4002 50.6 28.4002 50.4 27.9002ZM54 37.4002C54 36.6002 53.4 35.6002 51.6 35.3002C47.2 34.7002 40.5 34.0002 32 34.0002C23.5 34.0002 16.8 34.7002 12.4 35.3002C10.7 35.6002 10 36.6002 10 37.4002C10 47.0002 13.5 50.0002 27.8 50.0002H36.2C50.5 50.0002 54 47.0002 54 37.4002Z" fill="#664E27"/>
<path d="M48.9001 38.2C49.1001 37.7 48.8001 37.2 48.4001 37.1C48.4001 37.1 41.0001 36 32.0001 36C23.0001 36 15.6001 37.1 15.6001 37.1C15.1001 37.2 14.9001 37.7 15.1001 38.2L16.2001 41.1C16.4001 41.6 17.0001 42 17.5001 42H46.6001C47.1001 42 47.7001 41.6 47.9001 41.1L48.9001 38.2M32.0001 48C38.4001 48 47.5001 48 47.2001 45.9C47.2001 45.5 47.1001 45.1 46.9001 44.6C46.7001 44.1 46.6001 43.9 45.5001 43.9H18.4001C17.3001 43.9 17.2001 44 17.0001 44.6C16.9001 45.1 16.8001 45.5 16.7001 45.9C16.5001 48 25.6001 48 32.0001 48Z" fill="white"/>
</svg>
