<svg width="11" height="11" viewBox="0 0 12 12" fill="none" xmlns="http://www.w3.org/2000/svg">
<path d="M6 11.2943L5.8159 11.1219C1.62761 7.47702 0.5 6.19639 0.5 4.10306C0.5 2.37914 1.81171 1 3.39958 1C4.73431 1 5.49372 1.8127 6 2.42839C6.50628 1.8127 7.26569 1 8.60042 1C10.2113 1 11.5 2.40376 11.5 4.10306C11.5 6.19639 10.3724 7.47702 6.1841 11.1219L6 11.2943ZM3.39958 1.64031C2.13389 1.64031 1.09832 2.74855 1.09832 4.10306C1.09832 5.90086 2.1569 7.08298 6 10.4569C9.8431 7.08298 10.9017 5.90086 10.9017 4.10306C10.9017 2.74855 9.86611 1.64031 8.60042 1.64031C7.44979 1.64031 6.82845 2.37914 6.34519 2.9702L6 3.38886L5.65481 2.9702C5.17155 2.37914 4.55021 1.64031 3.39958 1.64031Z" fill="#A9A9A9" stroke="#A9A9A9" stroke-width="0.5"/>
</svg>
