<svg width="34" height="34" viewBox="0 0 34 34" fill="none" xmlns="http://www.w3.org/2000/svg">
<path d="M18.4167 34H15.5833C14.4117 34 13.4583 33.0466 13.4583 31.875V29.2372C12.5517 28.9751 11.679 28.6131 10.851 28.1555L8.98521 30.022C8.18196 30.8252 6.783 30.8238 5.97975 30.022L3.97587 28.0188C3.57425 27.6179 3.35325 27.0838 3.35325 26.5165C3.35325 25.9491 3.57425 25.415 3.97587 25.0141L5.84233 23.1469C5.38546 22.321 5.0235 21.4483 4.76213 20.541H2.125C0.953417 20.541 0 19.5875 0 18.416V15.5826C0 15.0145 0.221 14.4812 0.621917 14.0802C1.02354 13.6793 1.55692 13.4576 2.125 13.4576H4.76283C5.02492 12.5524 5.38617 11.679 5.84375 10.8517L3.978 8.98521C3.14925 8.15646 3.14925 6.80921 3.978 5.98046L5.98117 3.97658C6.78371 3.17475 8.18338 3.17333 8.98662 3.97658L10.8531 5.84304C11.6804 5.38617 12.5531 5.02421 13.4583 4.76283V2.125C13.4583 0.953417 14.4117 0 15.5833 0H18.4167C19.5882 0 20.5417 0.953417 20.5417 2.125V4.76283C21.4483 5.02492 22.321 5.38687 23.1469 5.84304L25.0134 3.97658C25.8166 3.17475 27.2156 3.17333 28.0188 3.97658L30.0227 5.97975C30.4243 6.38067 30.6453 6.91475 30.6453 7.48212C30.6453 8.0495 30.4243 8.58358 30.0227 8.9845L28.157 10.851C28.6145 11.6783 28.9765 12.551 29.2379 13.4576H31.875C33.0466 13.4576 34 14.411 34 15.5826V18.416C34 18.984 33.779 19.5174 33.3781 19.9183C32.9772 20.3193 32.4431 20.541 31.875 20.541H29.2372C28.9751 21.4476 28.6131 22.321 28.1562 23.1476L30.022 25.0141C30.8507 25.8428 30.8507 27.1901 30.022 28.0188L28.0188 30.0227C27.2156 30.8252 25.8166 30.8252 25.0134 30.0227L23.1483 28.1562C22.321 28.6138 21.4476 28.9751 20.5424 29.2372V31.875C20.5417 33.0466 19.589 34 18.4167 34ZM10.7362 26.5611C10.863 26.5611 10.9912 26.5951 11.1053 26.6645C12.1082 27.2779 13.1941 27.7284 14.3331 28.004C14.6512 28.0812 14.875 28.3652 14.875 28.6925V31.875C14.875 32.266 15.193 32.5833 15.5833 32.5833H18.4167C18.807 32.5833 19.125 32.266 19.125 31.875V28.6925C19.125 28.3652 19.3488 28.0812 19.6669 28.004C20.8045 27.7284 21.8903 27.2793 22.894 26.6652C23.1745 26.4945 23.533 26.5377 23.7646 26.7686L26.0157 29.0204C26.2813 29.2853 26.7516 29.2868 27.018 29.0204L29.0211 27.0165C29.2974 26.7403 29.2974 26.2912 29.0211 26.015L26.7693 23.7632C26.5377 23.5322 26.4952 23.1717 26.6659 22.8926C27.2786 21.891 27.7284 20.8052 28.004 19.6655C28.0805 19.3474 28.3652 19.1229 28.6925 19.1229H31.875C32.0641 19.1229 32.2426 19.0492 32.3765 18.9153C32.5097 18.7836 32.5833 18.6058 32.5833 18.416V15.5826C32.5833 15.1916 32.2653 14.8743 31.875 14.8743H28.6925C28.3652 14.8743 28.0805 14.6505 28.004 14.3317C27.7291 13.1934 27.2793 12.1075 26.6659 11.1045C26.4952 10.8255 26.5377 10.4663 26.7693 10.234L29.0211 7.98221C29.1529 7.84975 29.2287 7.66771 29.2287 7.48142C29.2287 7.29513 29.1529 7.11237 29.0211 6.98062L27.0172 4.97746C26.7495 4.71042 26.2827 4.71042 26.015 4.97746L23.7632 7.22925C23.5322 7.46158 23.1731 7.50479 22.8926 7.33267C21.8918 6.72067 20.8066 6.27017 19.6669 5.99463C19.3495 5.91883 19.125 5.63479 19.125 5.30754V2.125C19.125 1.734 18.807 1.41667 18.4167 1.41667H15.5833C15.193 1.41667 14.875 1.734 14.875 2.125V5.30754C14.875 5.63479 14.6512 5.91883 14.3331 5.99604C13.1955 6.27087 12.1097 6.72067 11.106 7.33408C10.8262 7.50479 10.467 7.46229 10.2361 7.23067L7.98433 4.97887C7.71658 4.71183 7.24979 4.71183 6.98204 4.97887L4.97958 6.98204C4.70333 7.25829 4.70333 7.70737 4.97958 7.98362L7.23137 10.2354C7.463 10.4663 7.5055 10.8269 7.33479 11.106C6.72137 12.109 6.27158 13.1948 5.99675 14.3324C5.92025 14.6505 5.6355 14.875 5.30825 14.875H2.125C1.93587 14.875 1.75738 14.9487 1.6235 15.0825C1.49033 15.215 1.41667 15.3928 1.41667 15.5826V18.416C1.41667 18.807 1.73471 19.1243 2.125 19.1243H5.30754C5.63479 19.1243 5.91954 19.3481 5.99604 19.6669C6.27158 20.8059 6.72137 21.8917 7.33408 22.8933C7.50479 23.1724 7.46229 23.5315 7.23067 23.7639L4.97887 26.0164C4.84712 26.1488 4.77133 26.3309 4.77133 26.5172C4.77133 26.7035 4.84712 26.8862 4.97887 27.018L6.98275 29.0211C7.24979 29.2882 7.71729 29.2882 7.98504 29.0211L10.2361 26.7693C10.3721 26.6319 10.5527 26.5611 10.7362 26.5611Z" fill="#2C3131"/>
<path d="M16.9993 24.0837C13.0936 24.0837 9.91602 20.9061 9.91602 17.0003C9.91602 13.0946 13.0936 9.91699 16.9993 9.91699C20.9051 9.91699 24.0827 13.0946 24.0827 17.0003C24.0827 20.9061 20.9058 24.0837 16.9993 24.0837ZM16.9993 11.3337C13.8749 11.3337 11.3327 13.8759 11.3327 17.0003C11.3327 20.1248 13.8749 22.667 16.9993 22.667C20.1238 22.667 22.666 20.1248 22.666 17.0003C22.666 13.8759 20.1245 11.3337 16.9993 11.3337Z" fill="#2C3131"/>
</svg>
