<svg width="12" height="12" viewBox="0 0 12 12" fill="none" xmlns="http://www.w3.org/2000/svg">
<path d="M9.42749 11.4783C9.35367 11.4785 9.28091 11.4606 9.21562 11.4261L6.00002 9.73189L2.78382 11.4261C2.70886 11.4654 2.62444 11.4829 2.54007 11.4767C2.45571 11.4705 2.37476 11.4408 2.30634 11.3909C2.23793 11.3411 2.18477 11.2731 2.15287 11.1946C2.12098 11.1161 2.1116 11.0302 2.1258 10.9467L2.74023 7.35873L0.137242 4.81757C0.07654 4.75834 0.0335939 4.68327 0.0132626 4.60086C-0.00706865 4.51844 -0.00397364 4.43197 0.0221975 4.35123C0.0483687 4.27049 0.0965716 4.19869 0.161353 4.14397C0.226134 4.08925 0.304908 4.05378 0.388764 4.04158L3.98482 3.51818L5.59292 0.253491C5.63042 0.177398 5.68842 0.113332 5.76036 0.0685362C5.8323 0.02374 5.91532 0 6.00002 0C6.08472 0 6.16774 0.02374 6.23968 0.0685362C6.31162 0.113332 6.36962 0.177398 6.40711 0.253491L8.01522 3.51818L11.611 4.04158C11.6949 4.05373 11.7737 4.08916 11.8385 4.14387C11.9033 4.19857 11.9515 4.27036 11.9778 4.35111C12.004 4.43187 12.0071 4.51835 11.9868 4.60079C11.9664 4.68323 11.9235 4.75832 11.8628 4.81757L9.25981 7.35873L9.87424 10.9467C9.88538 11.0119 9.88217 11.0789 9.86483 11.1428C9.84749 11.2066 9.81643 11.266 9.77383 11.3166C9.73123 11.3672 9.67811 11.4079 9.61819 11.4358C9.55826 11.4638 9.49358 11.4782 9.42749 11.4783Z" fill="#015C34"/>
</svg>
