<svg width="600" height="600" viewBox="0 0 600 600" fill="none" xmlns="http://www.w3.org/2000/svg">
<path d="M337.814 403.362C233.444 383.194 140.167 420.757 58.2344 477.731C112.94 551.849 200.671 600 299.999 600C416.47 600 517.31 533.698 566.974 436.891C547.562 447.983 526.386 455.294 504.201 456.303C443.697 456.303 398.318 415.967 337.814 403.362Z" fill="white"/>
<path d="M413.446 126.05C455.799 138.403 501.429 137.899 544.79 126.303C490.337 49.916 401.093 0 300 0C225.631 0 157.563 27.2269 105.126 72.1008C132.858 61.2605 161.597 54.2017 191.597 52.9412C272.269 47.8992 337.816 103.361 413.446 126.05Z" fill="#015C34"/>
<path d="M552.101 302.521C459.832 342.101 357.983 365.547 272.269 330.253C188.319 293.194 82.9412 263.698 0 297.984C0 298.74 0 299.244 0 300C0 366.555 21.6806 427.816 58.2353 477.732C140.168 421.009 233.445 383.446 337.815 403.362C398.319 415.967 443.697 456.303 504.202 456.303C526.639 455.295 547.563 447.984 566.975 436.891C588.151 395.799 600 349.412 600 300C600 294.202 599.748 288.404 599.496 282.605C584.37 287.647 569.496 294.958 552.101 302.521Z" fill="#DDEAE4"/>
<path d="M599.243 282.101C599.243 281.849 599.243 281.345 599.243 281.093C597.226 280.841 595.209 280.841 593.444 280.589C586.89 279.832 580.335 278.572 574.033 277.059C526.133 265.463 479.747 232.69 441.175 201.681C375.629 151.261 294.957 141.177 219.327 161.345C151.259 178.992 100.839 234.454 30.251 254.622C21.4275 257.395 12.0997 258.908 2.77199 259.917C1.00728 272.269 0.250977 285.127 0.250977 297.732C83.1922 263.446 188.57 292.942 272.52 330.001C358.234 365.295 460.083 341.849 552.352 302.269C569.747 294.706 584.621 287.395 599.747 282.353C599.243 282.353 599.243 282.353 599.243 282.101Z" fill="#ABC9BC"/>
<path fill-rule="evenodd" clip-rule="evenodd" d="M441.176 201.68C375.63 151.26 294.958 141.176 219.328 161.344C184.924 170.264 155.029 188.844 124.726 207.677C95.0753 226.105 65.0349 244.775 30 254.874C21.1764 257.395 11.8487 259.159 2.521 260.168C12.605 185.042 50.168 118.991 104.874 72.1005C132.353 61.0081 161.345 54.2014 191.345 52.9409C243.224 49.6984 288.848 71.4783 334.921 93.4726C360.491 105.679 386.2 117.952 413.193 126.05C455.798 138.403 501.176 137.899 544.538 126.302C571.513 164.369 589.916 208.739 596.723 256.89C597.983 264.706 598.74 273.025 599.244 281.092C597.479 281.092 595.462 280.84 593.445 280.588C586.891 279.832 580.588 278.571 574.034 277.059C525.882 265.462 479.496 232.689 441.176 201.681C441.84 202.217 442.514 202.756 443.198 203.296C442.514 202.756 441.84 202.217 441.176 201.68Z" fill="#72A48E"/>
</svg>
