<svg width="600" height="600" viewBox="0 0 600 600" fill="none" xmlns="http://www.w3.org/2000/svg">
<g clip-path="url(#clip0_342_1441)">
<path d="M413.4 126.1C455.8 138.6 501.3 138.1 544.7 126.5C490.3 49.9 401 0 300 0C225.6 0 157.5 27.1 105 72C132.6 61.1 161.5 54.2 191.6 52.9C272.3 47.9 337.8 103.4 413.4 126.1Z" fill="#D3DED7"/>
<path d="M337.8 403.4C233.4 383.3 140.2 420.8 58.2002 477.7C112.8 551.8 200.8 600 300 600C416.4 600 517.3 533.7 567 436.9C547.5 447.9 526.5 455.3 504.2 456.3C443.7 456.3 398.3 416 337.8 403.4Z" fill="#015C34"/>
<path d="M552.1 302.5C459.8 342 358 365.5 272.3 330.2C188.2 293.1 83 263.6 0 298C0 298.7 0 299.4 0 300C0 366.5 21.6 427.9 58.2 477.6C140.2 420.8 233.4 383.3 337.8 403.3C398.3 415.9 443.7 456.2 504.2 456.2C526.6 455.1 547.6 447.8 567 436.8C588.1 395.8 600 349.2 600 299.9C600 294 599.8 288.2 599.4 282.5C584.5 287.6 569.5 295.1 552.1 302.5Z" fill="#437152"/>
<path d="M599.4 282.2C599.4 281.9 599.4 281.5 599.4 281.2C597.4 281.1 595.5 280.9 593.5 280.6C587 279.9 580.5 278.7 574.1 277.1C526.1 265.5 479.8 232.7 441.3 201.6C375.8 151.2 295.1 141.1 219.5 161.3C151.4 178.9 101 234.4 30.4 254.6C21.5 257.3 12.2 259 2.8 260C1 272.4 0.1 285.1 0 298C83 263.6 188.2 293.2 272.2 330.3C357.9 365.6 459.8 342.1 552 302.6C569.4 295.1 584.4 287.7 599.3 282.6C599.4 282.4 599.4 282.3 599.4 282.2Z" fill="#6E927A"/>
<path d="M219.3 161.3C294.9 141.1 375.6 151.2 441.1 201.6C477.9 231.3 545.5 267.3 593.4 280.6C595.4 280.8 597.3 281 599.3 281.2C598.8 273 597.9 264.9 596.8 256.9C589.9 208.8 571.6 164.3 544.7 126.4C501.3 138 455.8 138.5 413.4 126C337.8 103.3 272.2 47.8 191.6 52.9C161.5 54.2 132.6 61 105 72C50.3002 118.9 12.7002 185.1 2.7002 260C12.1002 259 21.4002 257.3 30.3002 254.6C100.8 234.5 151.3 179 219.3 161.3Z" fill="#9FB6A7"/>
<path d="M574 277.2C580.5 278.8 586.9 279.9 593.4 280.7C545.6 267.5 477.9 231.5 441.1 201.7C479.7 232.8 526 265.6 574 277.2Z" fill="#9FB6A7"/>
</g>
<defs>
<clipPath id="clip0_342_1441">
<rect width="600" height="600" fill="white"/>
</clipPath>
</defs>
</svg>
