<svg width="1560" height="238" viewBox="0 0 1560 238" fill="none" xmlns="http://www.w3.org/2000/svg">
<path d="M164 50C180.8 54.9 198.9 54.7 216.1 50.1C194.5 19.8 159.1 0 119 0C89.5002 0 62.5002 10.8 41.7002 28.6C52.7002 24.3 64.1002 21.5 76.0002 21C108 19 134 41 164 50Z" fill="#D3DED7"/>
<path d="M134 160C92.5996 152 55.5996 166.9 23.0996 189.5C44.7996 218.9 79.5996 238 119 238C165.2 238 205.2 211.7 224.9 173.3C217.2 177.7 208.8 180.6 200 181C176 181 158 165 134 160Z" fill="#015C34"/>
<path d="M219 120C182.4 135.7 142 145 108 131C74.7 116.3 32.9 104.6 0 118.2C0 118.5 0 118.7 0 119C0 145.4 8.59999 169.7 23.1 189.5C55.6 167 92.6 152.1 134 160C158 165 176 181 200 181C208.9 180.6 217.2 177.7 224.9 173.3C233.3 157 238 138.6 238 119C238 116.7 237.9 114.4 237.8 112.1C231.8 114.1 225.9 117 219 120Z" fill="#437152"/>
<path d="M237.7 111.9C237.7 111.8 237.7 111.6 237.7 111.5C236.9 111.4 236.1 111.4 235.4 111.3C232.8 111 230.2 110.5 227.7 109.9C208.7 105.3 190.3 92.3002 175 80.0002C149 60.0002 117 56.0002 86.9996 64.0002C59.9996 71.0002 39.9996 93.0002 11.9996 101C8.49961 102.1 4.79961 102.7 1.09961 103.1C0.399609 108 0.0996094 113.1 0.0996094 118.1C32.9996 104.5 74.7996 116.2 108.1 130.9C142.1 144.9 182.5 135.6 219.1 119.9C226 116.9 231.9 114 237.9 112C237.7 112 237.7 112 237.7 111.9Z" fill="#6E927A"/>
<path d="M87 63.9999C117 55.9999 149 59.9999 175 79.9999C189.6 91.7999 216.4 106.1 235.4 111.3C236.2 111.4 237 111.5 237.7 111.5C237.5 108.3 237.2 105 236.7 101.9C234 82.7999 226.7 65.1999 216 50.0999C198.8 54.6999 180.8 54.8999 163.9 49.9999C133.9 40.9999 107.9 18.9999 75.9 20.9999C64 21.4999 52.5 24.1999 41.6 28.5999C19.9 47.1999 5 73.3999 1 103.2C4.7 102.8 8.39999 102.1 11.9 101.1C40 92.9999 60 70.9999 87 63.9999Z" fill="#9FB6A7"/>
<path d="M227.7 109.9C230.3 110.5 232.8 111 235.4 111.3C216.4 106 189.6 91.8 175 80C190.2 92.3 208.6 105.3 227.7 109.9Z" fill="#9FB6A7"/>
<path d="M367.1 184C361.7 184 357.3 182.4 354.1 179.1C350.8 175.8 349.2 171.5 349.2 166.1V70.6998C349.2 65.6998 350.9 61.5998 354.2 58.4998C357.6 55.3998 361.5 53.7998 366.1 53.7998H415.3C419 53.7998 421.7 54.6998 423.3 56.5998C424.9 58.3998 425.7 60.7998 425.7 63.5998C425.7 66.1998 424.8 68.4998 422.9 70.3998C421.1 72.3998 418.5 73.2998 415.2 73.2998H380.3C374.7 73.2998 371.8 76.0998 371.8 81.7998V99.6998C371.8 105.4 374.4 108.2 379.6 108.2H411.8C415.5 108.2 418.2 109.2 419.8 111.1C421.4 113.1 422.2 115.3 422.2 117.9C422.2 120.3 421.3 122.5 419.4 124.6C417.6 126.7 415 127.7 411.7 127.7H379.5C374.3 127.7 371.7 130.4 371.7 135.8V155.7C371.7 161.4 374.4 164.2 379.8 164.2H418.2C421.9 164.2 424.6 165.2 426.2 167.3C427.8 169.4 428.6 171.7 428.6 174.3C428.6 176.9 427.7 179.2 425.8 181.1C424 183.1 421.4 184 418.1 184H367.1V184Z" fill="#015C34"/>
<path d="M472.3 187.2C469.5 187.2 467 186.2 464.8 184.3C462.6 182.3 461.5 179.7 461.5 176.5C461.5 175.4 461.7 174 462.2 172.3L502.9 61.9C504.4 58.2 506.7 55.4 509.7 53.4C512.7 51.4 516 50.5 519.5 50.5C523 50.5 526.3 51.5 529.4 53.4C532.5 55.4 534.9 58.2 536.4 61.9L579.7 172.3C580.1 174 580.4 175.5 580.4 176.5C580.4 179.8 579.3 182.4 577.1 184.3C574.9 186.3 572.4 187.2 569.6 187.2C567.6 187.2 565.6 186.7 563.6 185.7C561.5 184.7 560 183.1 558.9 181L548.2 152.4C548 151.1 547.1 150.4 545.6 150.4H495.8C494.3 150.4 493.3 151.1 492.9 152.4L483.1 181.1C482 183.3 480.4 184.8 478.4 185.8C476.3 186.7 474.3 187.2 472.3 187.2ZM505.5 130.9H534.8C536.1 130.9 537.1 130.4 537.9 129.4C538.7 128.4 538.8 127.2 538.4 125.7L522.8 81.1C522.1 78.9 521.2 77.8 519.9 77.8C518.4 77.8 517.3 78.9 516.6 81.1L502 126C501.6 127.3 501.7 128.4 502.5 129.4C503.2 130.4 504.2 130.9 505.5 130.9Z" fill="#015C34"/>
<path d="M629 187.2C626.2 187.2 623.6 186.2 621.3 184.1C619 182 617.9 179.6 617.9 176.8V71.6001C617.9 65.7001 619.9 61.3001 623.9 58.2001C627.9 55.2001 632.2 53.6001 636.8 53.6001H668.7C676.1 53.6001 683 55.2001 689.4 58.3001C695.8 61.4001 701 65.9001 704.9 71.7001C708.8 77.5001 710.8 84.4001 710.8 92.4001C710.8 100 708.6 107.2 704.1 114.1C699.6 120.9 693.9 125.6 687 127.9C690 129.2 692.9 131.3 695.6 134.3C698.3 137.2 700.8 141.1 702.9 145.9L714.6 172.3C715.3 173.6 715.6 175 715.6 176.5C715.6 180.4 714.3 183.2 711.9 185C709.4 186.7 706.9 187.6 704.2 187.6C699.9 187.6 696.8 185.5 695.1 181.4L681.7 150.1C678.9 143.8 675.3 139.5 671 137.1C666.7 134.7 661.9 133.5 656.7 133.5H648.6C643 133.5 640.1 136.8 640.1 143.3V176.8C640.1 179.6 639 182.1 636.8 184.1C634.6 186.2 632 187.2 629 187.2ZM647.2 114H665.4C670.8 114 676.1 112.2 681.2 108.6C686.3 105 688.9 99.9001 688.9 93.1001C688.9 86.6001 686.6 81.7001 681.9 78.4001C677.2 75.1001 672.2 73.5001 666.8 73.5001H648.2C642.8 73.5001 640.1 76.2001 640.1 81.6001V106.4C640.1 111.5 642.4 114 647.2 114Z" fill="#015C34"/>
<path d="M782.4 187.2C778.9 187.2 776.2 186.2 774.1 184.3C772 182.3 771 179.9 771 176.8V82.0002C771 76.6002 768.2 73.9002 762.5 73.9002H742C735.3 73.9002 731.9 70.5002 731.9 63.8002C731.9 57.1002 735.3 53.7002 742 53.7002H822.5C825.5 53.7002 828 54.6002 830 56.5002C832 58.3002 832.9 60.8002 832.9 63.8002C832.9 66.8002 831.9 69.3002 830 71.1002C828 72.9002 825.5 73.9002 822.5 73.9002H802.3C796.7 73.9002 793.8 76.6002 793.8 82.0002V176.8C793.8 179.8 792.8 182.3 790.7 184.3C788.6 186.3 785.9 187.2 782.4 187.2Z" fill="#015C34"/>
<path d="M878.5 187.2C875.2 187.2 872.5 186.2 870.4 184.3C868.2 182.3 867.1 179.9 867.1 176.8V62.8001C867.1 59.5001 868.2 56.9001 870.4 55.0001C872.6 53.0001 875.3 52.1001 878.5 52.1001C882 52.1001 884.7 53.1001 886.8 55.0001C888.9 57.0001 889.9 59.6001 889.9 62.8001V95.7001C889.9 102.2 892.9 105.5 899 105.5H945.9C952 105.5 955 102.2 955 95.7001V62.8001C955 59.5001 956 56.9001 958.1 55.0001C960.2 53.0001 962.9 52.1001 966.4 52.1001C969.9 52.1001 972.6 53.1001 974.7 55.0001C976.8 57.0001 977.8 59.6001 977.8 62.8001V176.8C977.8 179.8 976.8 182.3 974.7 184.3C972.6 186.3 969.9 187.2 966.4 187.2C962.9 187.2 960.2 186.2 958.1 184.3C956 182.3 955 179.9 955 176.8V135.4C955 128.9 952 125.6 945.9 125.6H899C892.9 125.6 889.9 128.9 889.9 135.4V176.8C889.9 179.8 888.9 182.3 886.8 184.3C884.7 186.3 881.9 187.2 878.5 187.2Z" fill="#015C34"/>
<path d="M1082.7 118.8C1085.3 118.8 1087.5 119.6 1089.2 121.1C1090.9 122.6 1091.8 124.6 1091.8 127C1091.8 129.2 1090.9 131.1 1089.2 132.7C1087.5 134.3 1085.3 135.1 1082.7 135.1H1032.2C1026.3 135.1 1023.4 132.4 1023.4 127C1023.4 121.6 1026.3 118.9 1032.2 118.9H1082.7V118.8Z" fill="#015C34"/>
<path d="M1143.9 187.2C1140.4 187.2 1137.5 185.9 1135.3 183.5C1133 181 1132.1 178 1132.5 174.5L1146.5 65.1C1146.9 60.8 1148.6 57.5 1151.5 55.3C1154.4 53.1 1157.6 52 1161.1 52C1164.6 52 1167.8 52.8 1170.7 54.4C1173.6 56 1175.6 58.5 1176.7 61.7L1202.4 134.7C1203.5 137.3 1204.6 138.6 1205.7 138.6C1207 138.6 1208.1 137.3 1209 134.7L1234.7 61.7C1235.8 58.4 1237.8 56 1240.7 54.4C1243.6 52.8 1246.7 52 1250 52C1253.5 52 1256.7 53.1 1259.8 55.3C1262.8 57.5 1264.6 60.7 1265 65.1L1279 174.5C1279.4 178 1278.6 181 1276.4 183.5C1274.2 186 1271.3 187.2 1267.6 187.2C1264.8 187.2 1262.2 186.2 1259.9 184.3C1257.6 182.3 1256.3 179.9 1255.8 176.8L1248.6 96.3C1248.4 93.7 1247.5 92.4 1246 92.4C1244.5 92.4 1243.4 93.5 1242.7 95.7L1219.2 160.5C1217.9 164 1216.1 166.5 1213.7 168C1211.3 169.5 1208.6 170.3 1205.6 170.3C1199.7 170.3 1195.3 167 1192.2 160.5L1168.4 95.7C1167.5 93.5 1166.4 92.4 1165.1 92.4C1164.2 92.4 1163.6 93.7 1163.1 96.3L1155.3 176.8C1155.1 179.8 1153.8 182.3 1151.6 184.3C1149.6 186.3 1147 187.2 1143.9 187.2Z" fill="#015C34"/>
<path d="M1322.4 187.2C1319.6 187.2 1317.1 186.2 1314.9 184.3C1312.7 182.3 1311.6 179.7 1311.6 176.5C1311.6 175.4 1311.8 174 1312.3 172.3L1353 61.9C1354.5 58.2 1356.8 55.4 1359.8 53.4C1362.8 51.4 1366.1 50.5 1369.6 50.5C1373.1 50.5 1376.4 51.5 1379.5 53.4C1382.6 55.4 1385 58.2 1386.5 61.9L1429.8 172.3C1430.2 174 1430.5 175.5 1430.5 176.5C1430.5 179.8 1429.4 182.4 1427.2 184.3C1425 186.3 1422.5 187.2 1419.7 187.2C1417.7 187.2 1415.7 186.7 1413.7 185.7C1411.6 184.7 1410.1 183.1 1409 181L1398.3 152.3C1398.1 151 1397.2 150.3 1395.7 150.3H1345.9C1344.4 150.3 1343.4 151 1343 152.3L1333.2 181C1332.1 183.2 1330.5 184.7 1328.5 185.7C1326.4 186.7 1324.4 187.2 1322.4 187.2ZM1355.6 130.9H1384.9C1386.2 130.9 1387.2 130.4 1388 129.4C1388.8 128.4 1388.9 127.2 1388.5 125.7L1372.9 81.1C1372.2 78.9 1371.3 77.8 1370 77.8C1368.5 77.8 1367.4 78.9 1366.7 81.1L1352 126C1351.6 127.3 1351.7 128.4 1352.5 129.4C1353.3 130.4 1354.3 130.9 1355.6 130.9Z" fill="#015C34"/>
<path d="M1510.3 187.2C1500.7 187.2 1491.6 185.6 1482.8 182.3C1474 179 1467.2 174.4 1462.4 168.3C1460.7 165.9 1459.8 163.5 1459.8 161.1C1459.8 158.3 1460.9 155.8 1463.2 153.8C1465.5 151.7 1468 150.7 1470.9 150.7C1472.4 150.7 1473.9 151 1475.5 151.5C1477 152 1478.2 153 1479.1 154.3C1482.6 158.4 1487.3 161.7 1493.3 164.1C1499.3 166.5 1505.5 167.7 1512 167.7C1519.6 167.7 1525.8 165.9 1530.7 162.2C1535.6 158.5 1538 153.6 1538 147.5C1538 140.6 1535.1 135.6 1529.4 132.7C1523.6 129.8 1517 127.6 1509.4 126.3C1502.4 125 1495.4 123.1 1488.2 120.6C1481 118.1 1475.1 114.4 1470.3 109.5C1465.5 104.6 1463.1 97.9 1463.1 89.5C1463.1 78 1467.5 68.9 1476.3 62.1C1485.1 55.4 1496.9 52 1511.6 52C1519.4 52 1526.6 53.1 1533.1 55.4C1539.6 57.7 1545 60.8 1549.4 64.7C1552 66.9 1553.3 69.6 1553.3 72.8C1553.3 75.4 1552.3 77.7 1550.4 79.6C1548.4 81.6 1546.2 82.5 1543.6 82.5C1541 82.5 1538.5 81.6 1536.1 79.9C1529.1 74.3 1520.6 71.4 1510.4 71.4C1493 71.4 1484.3 77.3 1484.3 89C1484.3 94.6 1487 98.5 1492.3 100.6C1497.6 102.7 1504.8 104.8 1514 107C1518.3 107.9 1523.1 109.1 1528.2 110.7C1533.3 112.3 1538.2 114.6 1543 117.5C1547.8 120.4 1551.7 124.3 1554.7 129.2C1557.7 134.1 1559.3 140.2 1559.3 147.6C1559.3 159.3 1554.8 168.8 1545.8 176.1C1536.7 183.6 1524.9 187.2 1510.3 187.2Z" fill="#015C34"/>
</svg>
