<svg width="31" height="29" viewBox="0 0 31 29" fill="none" xmlns="http://www.w3.org/2000/svg">
<path d="M12.9171 24.5219L12.6404 24.2948H12.6244C8.57792 20.984 4.33172 17.4327 2.45243 13.2703L2.45249 13.2703L2.44759 13.2598C1.83911 11.9528 1.51561 10.5316 1.50001 9.08865C1.49861 8.14624 1.68524 7.21301 2.04899 6.34359C2.41327 5.47291 2.94784 4.68379 3.62132 4.02256C4.29479 3.36133 5.09359 2.84133 5.97081 2.49309C6.84802 2.14484 7.78598 1.97538 8.7296 1.99464L8.73901 1.99483L8.74843 1.99485C10.3272 1.99734 11.872 2.45349 13.1988 3.30898C13.7744 3.68274 14.2952 4.13476 14.7463 4.65204L15.4957 5.51149L16.25 4.65634C16.7064 4.13885 17.2286 3.68547 17.8046 3.3077C19.1304 2.45287 20.674 1.99714 22.2514 1.99485L22.2609 1.99483L22.2704 1.99464C23.214 1.97538 24.152 2.14484 25.0292 2.49309C25.9064 2.84133 26.7052 3.36133 27.3787 4.02256C28.0522 4.68379 28.5867 5.47291 28.951 6.34359C29.3148 7.21311 29.5014 8.14646 29.5 9.08899C29.4855 10.5333 29.1625 11.9578 28.5525 13.267L28.5525 13.267L28.5476 13.2778C26.626 17.5339 22.2313 21.1495 18.1056 24.5169L18.0944 24.5259L18.0943 24.5259L18.0873 24.5316C17.1872 25.265 16.3145 25.9776 15.5059 26.6737C14.7702 26.0427 13.9804 25.3946 13.1675 24.7275C13.0842 24.6592 13.0007 24.5906 12.9171 24.5219Z" stroke="#D92828" stroke-width="2"/>
</svg>
