<svg width="24" height="22" viewBox="0 0 24 22" fill="none" xmlns="http://www.w3.org/2000/svg">
<path d="M9.98916 19.8251C10.8005 20.4909 11.5669 21.1199 12.2513 21.7262L12.2619 21.8112L12.333 21.7478C13.0738 21.0862 13.9101 20.4027 14.7981 19.6792L14.8092 19.6703L14.8096 19.67L14.8137 19.6667C17.9321 17.1214 21.4779 14.2273 23.0459 10.7546C23.5631 9.64443 23.8368 8.43645 23.8486 7.21176V7.21139C23.8503 6.37901 23.6857 5.55467 23.3644 4.78679C23.0431 4.01891 22.5717 3.32295 21.9777 2.73979C21.3838 2.15664 20.6793 1.69803 19.9056 1.3909C19.1321 1.08383 18.3051 0.934369 17.473 0.951292C16.1062 0.953373 14.7688 1.34856 13.6204 2.08973L13.6201 2.08992C13.1319 2.40977 12.6883 2.79157 12.2988 3.22582C11.9116 2.78958 11.4674 2.40744 10.978 2.0898L10.9779 2.08972C9.82897 1.34871 8.49128 0.953542 7.12414 0.951292C6.29209 0.934369 5.46504 1.08383 4.69154 1.3909C3.91789 1.69803 3.2134 2.15664 2.61944 2.73979C2.02549 3.32295 1.55403 4.01891 1.23276 4.78679C0.911489 5.55467 0.74688 6.37901 0.748596 7.21139L0.7486 7.2118C0.761323 8.43554 1.03543 9.64076 1.55125 10.7488C3.11572 14.2137 6.65007 17.1036 9.76334 19.6493L9.78869 19.67L9.8025 19.6813H9.81394C9.87257 19.7294 9.93098 19.7773 9.98916 19.8251ZM7.12296 3.3513L7.12401 3.35129C7.76403 3.34585 8.39794 3.47591 8.98411 3.73292C9.57012 3.98986 10.0951 4.36787 10.5247 4.84212C10.5248 4.84225 10.5249 4.84237 10.525 4.8425L12.2608 6.84271L12.2986 6.88622L12.3363 6.84271L14.0721 4.8425C14.0723 4.84237 14.0724 4.84225 14.0725 4.84212C14.502 4.36787 15.0271 3.98986 15.6131 3.73292C16.1992 3.47591 16.8331 3.34585 17.4732 3.3513L17.4741 3.35129C18.5334 3.34048 19.554 3.74871 20.3136 4.48706C20.6753 4.84218 20.9622 5.26618 21.1574 5.73402C21.3525 6.20183 21.4519 6.704 21.4497 7.21087C21.4383 8.09815 21.2353 8.97408 20.8567 9.77706C20.1218 11.2649 19.1299 12.6113 17.9267 13.7542L17.9256 13.7553C16.7879 14.9091 15.4774 16.0198 14.3437 16.9557C14.0298 17.2144 13.7102 17.4754 13.3871 17.7387L13.3869 17.7388L13.1869 17.9033L13.1868 17.9033L12.4259 18.5279H12.4215L12.4083 18.5374L12.3957 18.5466L12.3956 18.5465L12.3925 18.5491L12.3857 18.555L12.3845 18.556L12.3385 18.593L12.3379 18.5935L12.3311 18.5992H12.3205L12.3102 18.6072H12.3023L12.2977 18.6111C12.0007 18.3644 11.6949 18.1139 11.3987 17.8721L11.1975 17.7077L11.1975 17.7077L11.1974 17.7076C10.8777 17.4466 10.5581 17.1856 10.2443 16.927C9.11059 15.9911 7.80123 14.8792 6.66346 13.7311L6.66347 13.7311L6.66239 13.73C5.45943 12.5866 4.46759 11.2399 3.73246 9.75183C3.36072 8.9557 3.16116 8.08891 3.14859 7.21075C3.145 6.70242 3.24361 6.19855 3.43857 5.72908C3.63353 5.25962 3.92085 4.83414 4.28348 4.47791C5.04457 3.74292 6.065 3.33805 7.12296 3.3513Z" fill="#D92828" stroke="#2C3131" stroke-width="0.1"/>
</svg>
