<svg width="18" height="17" viewBox="0 0 18 17" fill="none" xmlns="http://www.w3.org/2000/svg">
<path d="M3.678 11.894C3.7818 11.9982 3.86133 12.124 3.91094 12.2625C3.96055 12.4009 3.97901 12.5486 3.965 12.695C3.89472 13.3726 3.76148 14.0421 3.567 14.695C4.962 14.372 5.814 13.998 6.201 13.802C6.4205 13.6908 6.67329 13.6645 6.911 13.728C7.59243 13.9097 8.29477 14.0011 9 14C12.996 14 16 11.193 16 8C16 4.808 12.996 2 9 2C5.004 2 2 4.808 2 8C2 9.468 2.617 10.83 3.678 11.894ZM3.185 15.799C2.94807 15.846 2.71037 15.889 2.472 15.928C2.272 15.96 2.12 15.752 2.199 15.566C2.28779 15.3566 2.36918 15.1441 2.443 14.929L2.446 14.919C2.694 14.199 2.896 13.371 2.97 12.6C1.743 11.37 1 9.76 1 8C1 4.134 4.582 1 9 1C13.418 1 17 4.134 17 8C17 11.866 13.418 15 9 15C8.20765 15.0011 7.41859 14.8982 6.653 14.694C6.133 14.957 5.014 15.436 3.185 15.799V15.799Z" fill="#2C3131" stroke="#2C3131" stroke-width="0.5"/>
</svg>
