<svg width="11" height="10" viewBox="0 0 11 10" fill="none" xmlns="http://www.w3.org/2000/svg">
<path d="M8.71334 10C8.64903 10.0002 8.58564 9.98462 8.52876 9.95456L5.72729 8.47854L2.92529 9.95456C2.85999 9.98878 2.78644 10.004 2.71294 9.99864C2.63944 9.99322 2.56892 9.96734 2.50931 9.92391C2.44971 9.88049 2.4034 9.82124 2.37561 9.75286C2.34782 9.68447 2.33965 9.60967 2.35203 9.53688L2.88732 6.41101L0.619567 4.19713C0.566683 4.14552 0.529267 4.08012 0.511555 4.00832C0.493842 3.93652 0.496538 3.86119 0.519339 3.79084C0.542139 3.7205 0.584134 3.65795 0.640573 3.61028C0.697011 3.5626 0.76564 3.5317 0.838696 3.52107L3.97163 3.06508L5.37262 0.220845C5.40529 0.154552 5.45582 0.0987366 5.5185 0.0597096C5.58117 0.0206826 5.6535 0 5.72729 0C5.80108 0 5.87341 0.0206826 5.93608 0.0597096C5.99876 0.0987366 6.04929 0.154552 6.08196 0.220845L7.48295 3.06508L10.6156 3.52107C10.6887 3.53166 10.7574 3.56253 10.8138 3.61019C10.8703 3.65785 10.9123 3.72039 10.9352 3.79074C10.958 3.8611 10.9607 3.93644 10.943 4.00826C10.9253 4.08008 10.8879 4.14551 10.835 4.19713L8.56726 6.41101L9.10255 9.53688C9.11226 9.59374 9.10947 9.65204 9.09436 9.7077C9.07925 9.76337 9.0522 9.81505 9.01508 9.85916C8.97797 9.90326 8.93169 9.93871 8.87948 9.96304C8.82727 9.98736 8.77092 9.99998 8.71334 10Z" fill="#A9A9A9"/>
</svg>
