<svg width="87" height="15" viewBox="0 0 87 15" fill="none" xmlns="http://www.w3.org/2000/svg">
<path d="M11.7842 13.8478L11.7826 13.8478C11.7724 13.8479 11.7623 13.8454 11.7532 13.8406L11.7526 13.8403L7.73309 11.7225L7.50005 11.5997L7.26699 11.7225L3.24766 13.8398C3.24758 13.8398 3.2475 13.8399 3.24743 13.8399C3.23641 13.8456 3.2241 13.8481 3.21183 13.8472C3.19947 13.8463 3.18753 13.842 3.17736 13.8345C3.16719 13.8271 3.15916 13.8169 3.1543 13.805C3.14948 13.7931 3.14803 13.7801 3.15015 13.7674C3.15016 13.7673 3.15017 13.7672 3.15018 13.7672L3.91811 9.28281L3.96243 9.02404L3.77457 8.84064L0.520832 5.66419L0.520744 5.6641C0.511655 5.65523 0.505128 5.64389 0.502025 5.63131C0.49892 5.61873 0.499396 5.60552 0.503386 5.5932C0.507374 5.5809 0.514678 5.57009 0.524347 5.56192C0.534005 5.55376 0.545651 5.54855 0.557942 5.54676L0.557969 5.54676L5.05304 4.89252L5.31334 4.85463L5.42957 4.61867L7.43965 0.537884C7.44534 0.526341 7.45407 0.516756 7.46474 0.510111C7.47541 0.503472 7.48762 0.5 7.50002 0.5C7.51243 0.5 7.52464 0.503472 7.53531 0.510111C7.54598 0.516754 7.55471 0.526339 7.5604 0.537884L9.57048 4.61867L9.68671 4.85463L9.947 4.89252L14.4417 5.54676L14.442 5.54681C14.4543 5.54859 14.466 5.55379 14.4756 5.56195C14.4853 5.57011 14.4926 5.58092 14.4966 5.59323C14.5006 5.60554 14.5011 5.61876 14.498 5.63135C14.4949 5.64393 14.4883 5.65527 14.4793 5.66414L14.4792 5.66419L11.2255 8.84064L11.0376 9.02404L11.0819 9.28281L11.8499 13.7675C11.8516 13.7775 11.8511 13.7877 11.8485 13.7975C11.8459 13.8072 11.8411 13.8162 11.8347 13.8238C11.8283 13.8314 11.8204 13.8375 11.8116 13.8416C11.8021 13.846 11.7932 13.8478 11.7842 13.8478Z" stroke="#015C34"/>
<path d="M29.7842 13.8478L29.7826 13.8478C29.7724 13.8479 29.7623 13.8454 29.7532 13.8406L29.7526 13.8403L25.7331 11.7225L25.5 11.5997L25.267 11.7225L21.2477 13.8398C21.2476 13.8398 21.2475 13.8399 21.2474 13.8399C21.2364 13.8456 21.2241 13.8481 21.2118 13.8472C21.1995 13.8463 21.1875 13.842 21.1774 13.8345C21.1672 13.8271 21.1592 13.8169 21.1543 13.805C21.1495 13.7931 21.148 13.7801 21.1501 13.7674C21.1502 13.7673 21.1502 13.7672 21.1502 13.7672L21.9181 9.28281L21.9624 9.02404L21.7746 8.84064L18.5208 5.66419L18.5207 5.6641C18.5117 5.65523 18.5051 5.64389 18.502 5.63131C18.4989 5.61873 18.4994 5.60552 18.5034 5.5932C18.5074 5.5809 18.5147 5.57009 18.5243 5.56192C18.534 5.55376 18.5457 5.54855 18.5579 5.54676L18.558 5.54676L23.053 4.89252L23.3133 4.85463L23.4296 4.61867L25.4397 0.537884C25.4453 0.526341 25.4541 0.516756 25.4647 0.510111C25.4754 0.503472 25.4876 0.5 25.5 0.5C25.5124 0.5 25.5246 0.503472 25.5353 0.510111C25.546 0.516754 25.5547 0.526339 25.5604 0.537884L27.5705 4.61867L27.6867 4.85463L27.947 4.89252L32.4417 5.54676L32.442 5.54681C32.4543 5.54859 32.466 5.55379 32.4756 5.56195C32.4853 5.57011 32.4926 5.58092 32.4966 5.59323C32.5006 5.60554 32.5011 5.61876 32.498 5.63135C32.4949 5.64393 32.4883 5.65527 32.4793 5.66414L32.4792 5.66419L29.2255 8.84064L29.0376 9.02404L29.0819 9.28281L29.8499 13.7675C29.8516 13.7775 29.8511 13.7877 29.8485 13.7975C29.8459 13.8072 29.8411 13.8162 29.8347 13.8238C29.8283 13.8314 29.8204 13.8375 29.8116 13.8416C29.8021 13.846 29.7932 13.8478 29.7842 13.8478Z" stroke="#015C34"/>
<path d="M47.7842 13.8478L47.7826 13.8478C47.7724 13.8479 47.7623 13.8454 47.7532 13.8406L47.7526 13.8403L43.7331 11.7225L43.5 11.5997L43.267 11.7225L39.2477 13.8398C39.2476 13.8398 39.2475 13.8399 39.2474 13.8399C39.2364 13.8456 39.2241 13.8481 39.2118 13.8472C39.1995 13.8463 39.1875 13.842 39.1774 13.8345C39.1672 13.8271 39.1592 13.8169 39.1543 13.805C39.1495 13.7931 39.148 13.7801 39.1501 13.7674C39.1502 13.7673 39.1502 13.7672 39.1502 13.7672L39.9181 9.28281L39.9624 9.02404L39.7746 8.84064L36.5208 5.66419L36.5207 5.6641C36.5117 5.65523 36.5051 5.64389 36.502 5.63131C36.4989 5.61873 36.4994 5.60552 36.5034 5.5932C36.5074 5.5809 36.5147 5.57009 36.5243 5.56192C36.534 5.55376 36.5457 5.54855 36.5579 5.54676L36.558 5.54676L41.053 4.89252L41.3133 4.85463L41.4296 4.61867L43.4397 0.537884C43.4453 0.526341 43.4541 0.516756 43.4647 0.510111C43.4754 0.503472 43.4876 0.5 43.5 0.5C43.5124 0.5 43.5246 0.503472 43.5353 0.510111C43.546 0.516754 43.5547 0.526339 43.5604 0.537884L45.5705 4.61867L45.6867 4.85463L45.947 4.89252L50.4417 5.54676L50.442 5.54681C50.4543 5.54859 50.466 5.55379 50.4756 5.56195C50.4853 5.57011 50.4926 5.58092 50.4966 5.59323C50.5006 5.60554 50.5011 5.61876 50.498 5.63135C50.4949 5.64393 50.4883 5.65527 50.4793 5.66414L50.4792 5.66419L47.2255 8.84064L47.0376 9.02404L47.0819 9.28281L47.8499 13.7675C47.8516 13.7775 47.8511 13.7877 47.8485 13.7975C47.8459 13.8072 47.8411 13.8162 47.8347 13.8238C47.8283 13.8314 47.8204 13.8375 47.8116 13.8416C47.8021 13.846 47.7932 13.8478 47.7842 13.8478Z" stroke="#015C34"/>
<path d="M65.7842 13.8478L65.7826 13.8478C65.7724 13.8479 65.7623 13.8454 65.7532 13.8406L65.7526 13.8403L61.7331 11.7225L61.5 11.5997L61.267 11.7225L57.2477 13.8398C57.2476 13.8398 57.2475 13.8399 57.2474 13.8399C57.2364 13.8456 57.2241 13.8481 57.2118 13.8472C57.1995 13.8463 57.1875 13.842 57.1774 13.8345C57.1672 13.8271 57.1592 13.8169 57.1543 13.805C57.1495 13.7931 57.148 13.7801 57.1501 13.7674C57.1502 13.7673 57.1502 13.7672 57.1502 13.7672L57.9181 9.28281L57.9624 9.02404L57.7746 8.84064L54.5208 5.66419L54.5207 5.6641C54.5117 5.65523 54.5051 5.64389 54.502 5.63131C54.4989 5.61873 54.4994 5.60552 54.5034 5.5932C54.5074 5.5809 54.5147 5.57009 54.5243 5.56192C54.534 5.55376 54.5457 5.54855 54.5579 5.54676L54.558 5.54676L59.053 4.89252L59.3133 4.85463L59.4296 4.61867L61.4397 0.537884C61.4453 0.526341 61.4541 0.516756 61.4647 0.510111C61.4754 0.503472 61.4876 0.5 61.5 0.5C61.5124 0.5 61.5246 0.503472 61.5353 0.510111C61.546 0.516754 61.5547 0.526339 61.5604 0.537884L63.5705 4.61867L63.6867 4.85463L63.947 4.89252L68.4417 5.54676L68.442 5.54681C68.4543 5.54859 68.466 5.55379 68.4756 5.56195C68.4853 5.57011 68.4926 5.58092 68.4966 5.59323C68.5006 5.60554 68.5011 5.61876 68.498 5.63135C68.4949 5.64393 68.4883 5.65527 68.4793 5.66414L68.4792 5.66419L65.2255 8.84064L65.0376 9.02404L65.0819 9.28281L65.8499 13.7675C65.8516 13.7775 65.8511 13.7877 65.8485 13.7975C65.8459 13.8072 65.8411 13.8162 65.8347 13.8238C65.8283 13.8314 65.8204 13.8375 65.8116 13.8416C65.8021 13.846 65.7932 13.8478 65.7842 13.8478Z" stroke="#015C34"/>
<path d="M83.7842 13.8478L83.7826 13.8478C83.7724 13.8479 83.7623 13.8454 83.7532 13.8406L83.7526 13.8403L79.7331 11.7225L79.5 11.5997L79.267 11.7225L75.2477 13.8398C75.2476 13.8398 75.2475 13.8399 75.2474 13.8399C75.2364 13.8456 75.2241 13.8481 75.2118 13.8472C75.1995 13.8463 75.1875 13.842 75.1774 13.8345C75.1672 13.8271 75.1592 13.8169 75.1543 13.805C75.1495 13.7931 75.148 13.7801 75.1501 13.7674C75.1502 13.7673 75.1502 13.7672 75.1502 13.7672L75.9181 9.28281L75.9624 9.02404L75.7746 8.84064L72.5208 5.66419L72.5207 5.6641C72.5117 5.65523 72.5051 5.64389 72.502 5.63131C72.4989 5.61873 72.4994 5.60552 72.5034 5.5932C72.5074 5.5809 72.5147 5.57009 72.5243 5.56192C72.534 5.55376 72.5457 5.54855 72.5579 5.54676L72.558 5.54676L77.053 4.89252L77.3133 4.85463L77.4296 4.61867L79.4397 0.537884C79.4453 0.526341 79.4541 0.516756 79.4647 0.510111C79.4754 0.503472 79.4876 0.5 79.5 0.5C79.5124 0.5 79.5246 0.503472 79.5353 0.510111C79.546 0.516754 79.5547 0.526339 79.5604 0.537884L81.5705 4.61867L81.6867 4.85463L81.947 4.89252L86.4417 5.54676L86.442 5.54681C86.4543 5.54859 86.466 5.55379 86.4756 5.56195C86.4853 5.57011 86.4926 5.58092 86.4966 5.59323C86.5006 5.60554 86.5011 5.61876 86.498 5.63135C86.4949 5.64393 86.4883 5.65527 86.4793 5.66414L86.4792 5.66419L83.2255 8.84064L83.0376 9.02404L83.0819 9.28281L83.8499 13.7675C83.8516 13.7775 83.8511 13.7877 83.8485 13.7975C83.8459 13.8072 83.8411 13.8162 83.8347 13.8238C83.8283 13.8314 83.8204 13.8375 83.8116 13.8416C83.8021 13.846 83.7932 13.8478 83.7842 13.8478Z" stroke="#015C34"/>
</svg>
