<svg width="48" height="48" viewBox="0 0 48 48" fill="none" xmlns="http://www.w3.org/2000/svg">
<circle cx="24" cy="24" r="24" fill="#FEE500"/>
<path d="M24.0697 11.583C16.6028 11.583 10.5811 16.4003 10.5811 22.2486C10.5811 26.0447 13.0861 29.3686 16.8436 31.2667L15.5718 36.0166C15.5479 36.0878 15.5442 36.1642 15.5612 36.2374C15.5782 36.3105 15.6152 36.3775 15.6682 36.4308C15.7454 36.4989 15.8447 36.5366 15.9476 36.5368C16.0329 36.53 16.1139 36.4963 16.1788 36.4405L21.6513 32.7504C22.4592 32.8619 23.2735 32.9198 24.0889 32.9238C31.5462 32.9238 37.5775 28.1065 37.5775 22.2486C37.5775 16.3907 31.5269 11.583 24.0697 11.583Z" fill="#392020"/>
<path d="M15.3018 20.5626H13.8277C13.645 20.5679 13.4646 20.5211 13.3075 20.4277C13.2377 20.384 13.1777 20.3263 13.1313 20.2583C13.0849 20.1903 13.053 20.1135 13.0377 20.0326C13.033 19.9813 13.033 19.9298 13.0377 19.8785C13.0331 19.7826 13.0517 19.6869 13.092 19.5997C13.1322 19.5125 13.1929 19.4363 13.2689 19.3775C13.4369 19.2559 13.6396 19.1916 13.847 19.1944H18.2886C18.4728 19.1879 18.6544 19.2384 18.8089 19.3389C18.8803 19.3807 18.9415 19.4379 18.9882 19.5062C19.0348 19.5745 19.0657 19.6523 19.0787 19.734C19.0834 19.7821 19.0834 19.8305 19.0787 19.8785C19.0832 19.9759 19.0646 20.0729 19.0244 20.1616C18.9842 20.2504 18.9236 20.3283 18.8474 20.3891C18.6835 20.5106 18.4828 20.5719 18.279 20.5626H16.853V25.6304C16.8588 25.7384 16.8421 25.8463 16.804 25.9475C16.7658 26.0487 16.7071 26.1409 16.6314 26.2181C16.5589 26.292 16.4717 26.3499 16.3755 26.3881C16.2792 26.4263 16.1761 26.4438 16.0726 26.4397C15.8917 26.4449 15.7146 26.3871 15.5716 26.276C15.4355 26.1675 15.3432 26.0135 15.3115 25.8424C15.302 25.772 15.302 25.7008 15.3115 25.6304L15.3018 20.5626Z" fill="#FEE500"/>
<path d="M19.5037 19.5703C19.5461 19.4117 19.6456 19.2744 19.7831 19.1849C19.9297 19.1018 20.0966 19.0617 20.2649 19.0692H20.631C20.8095 19.0629 20.9863 19.1062 21.1416 19.1945C21.3062 19.3052 21.4231 19.4737 21.4692 19.6666L23.3961 25.1102C23.4461 25.2523 23.4879 25.3971 23.5214 25.5439C23.5247 25.6048 23.5247 25.6659 23.5214 25.7269C23.5247 25.8208 23.5074 25.9143 23.4708 26.0008C23.4342 26.0873 23.3791 26.1648 23.3094 26.2279C23.2419 26.2971 23.1609 26.3516 23.0714 26.3881C22.9819 26.4245 22.8858 26.4421 22.7892 26.4398C22.6406 26.4546 22.4913 26.419 22.3655 26.3386C22.2396 26.2582 22.1445 26.1377 22.0955 25.9967L21.6908 24.8116H19.1569L18.7522 25.9967C18.7044 26.1405 18.6081 26.2633 18.4798 26.3441C18.3516 26.4249 18.1993 26.4587 18.0489 26.4398C17.886 26.4441 17.7264 26.3931 17.596 26.2953C17.4691 26.1943 17.3834 26.0505 17.3552 25.8907C17.3501 25.8362 17.3501 25.7813 17.3552 25.7269C17.3386 25.6312 17.3386 25.5335 17.3552 25.4379C17.3552 25.3319 17.4226 25.2162 17.4612 25.1102L19.5037 19.5703ZM20.4672 20.8325L19.5519 23.7229H21.3729L20.4672 20.8325Z" fill="#FEE500"/>
<path d="M23.742 19.8786C23.7323 19.6623 23.8085 19.4511 23.954 19.2909C24.028 19.2162 24.1168 19.1579 24.2147 19.1197C24.3127 19.0816 24.4175 19.0643 24.5225 19.0692C24.7029 19.0671 24.8791 19.1247 25.0235 19.233C25.1573 19.346 25.2462 19.5032 25.274 19.6762C25.2835 19.7433 25.2835 19.8115 25.274 19.8786V24.9464H27.9235C28.1072 24.944 28.2877 24.9941 28.4438 25.0909C28.5139 25.1341 28.5742 25.1917 28.6207 25.2597C28.6672 25.3278 28.6988 25.4048 28.7136 25.4859C28.7136 25.4859 28.7136 25.5823 28.7136 25.6305C28.7181 25.7264 28.6995 25.822 28.6593 25.9092C28.619 25.9964 28.5583 26.0727 28.4823 26.1315C28.3144 26.2531 28.1116 26.3173 27.9042 26.3145H24.6477C24.4403 26.3278 24.2341 26.2738 24.06 26.1604C23.9042 26.0439 23.8004 25.8709 23.771 25.6787C23.7639 25.5728 23.7639 25.4665 23.771 25.3607L23.742 19.8786Z" fill="#FEE500"/>
<path d="M28.8872 19.8789C28.8814 19.6633 28.9571 19.4534 29.0992 19.2912C29.2436 19.1599 29.4288 19.0825 29.6236 19.0719C29.8184 19.0614 30.0109 19.1184 30.1686 19.2333C30.3054 19.3453 30.3976 19.5024 30.4288 19.6764C30.4335 19.7438 30.4335 19.8115 30.4288 19.8789V22.2393L32.8663 19.4259C32.9603 19.33 33.06 19.2399 33.165 19.1563C33.264 19.0973 33.3775 19.0672 33.4926 19.0695C33.661 19.0685 33.8257 19.119 33.9647 19.214C34.0302 19.2581 34.0862 19.315 34.1292 19.3812C34.1722 19.4475 34.2015 19.5216 34.2152 19.5994C34.2191 19.6185 34.2191 19.6382 34.2152 19.6573C34.2105 19.6795 34.2105 19.7024 34.2152 19.7247C34.2149 19.826 34.1883 19.9257 34.1381 20.0138C34.087 20.107 34.0256 20.1942 33.9551 20.2738L32.3557 22.0274L34.2827 25.0141V25.1104C34.3827 25.2485 34.4607 25.4014 34.5139 25.5634V25.6115C34.525 25.7231 34.5089 25.8358 34.467 25.9398C34.425 26.0439 34.3585 26.1361 34.273 26.2088C34.1123 26.3303 33.9157 26.3948 33.7142 26.3919C33.5804 26.3974 33.4474 26.3674 33.3288 26.3051C33.2005 26.2191 33.0947 26.1034 33.0205 25.9679L31.2284 23.0775L30.371 23.9736V25.5825C30.3767 25.7981 30.301 26.008 30.159 26.1702C30.0828 26.2446 29.9923 26.3028 29.8929 26.3409C29.7935 26.379 29.6873 26.3964 29.5809 26.3919C29.4031 26.3956 29.2295 26.3377 29.0895 26.2281C28.9534 26.1196 28.8611 25.9657 28.8294 25.7946C28.8199 25.7242 28.8199 25.6529 28.8294 25.5825L28.8872 19.8789Z" fill="#FEE500"/>
</svg>
